<svg width="184" height="178" viewBox="0 0 184 178" fill="none" xmlns="http://www.w3.org/2000/svg">
<path d="M92 149.667L57.5933 170.293C54.8974 171.913 51.8117 172.769 48.6667 172.769C45.5216 172.769 42.4359 171.913 39.74 170.293L13.74 154.693C11.1812 153.156 9.06284 150.984 7.59002 148.388C6.1172 145.791 5.33988 142.858 5.33333 139.873V111.793C5.33988 108.808 6.1172 105.876 7.59002 103.279C9.06284 100.683 11.1812 98.5106 13.74 96.9733L48.6667 76M92 149.667V102M92 149.667L126.407 170.293C129.103 171.913 132.188 172.769 135.333 172.769C138.478 172.769 141.564 171.913 144.26 170.293L170.26 154.693C172.819 153.156 174.937 150.984 176.41 148.388C177.883 145.791 178.66 142.858 178.667 139.873V111.793C178.66 108.808 177.883 105.876 176.41 103.279C174.937 100.683 172.819 98.5106 170.26 96.9733L135.333 76M92 102L48.6667 76M92 102L48.6667 128M92 102L135.333 76M92 102L135.333 128M92 102L92 54.3333M48.6667 76L48.6667 38.1267C48.6732 35.1416 49.4505 32.2088 50.9234 29.6124C52.3962 27.016 54.5146 24.844 57.0733 23.3067L83.0733 7.70667C85.7692 6.08698 88.855 5.2313 92 5.2313C95.145 5.2313 98.2308 6.08698 100.927 7.70667L126.927 23.3067C129.485 24.844 131.604 27.016 133.077 29.6124C134.549 32.2088 135.327 35.1416 135.333 38.1267V76M48.6667 128L7.58667 103.3M48.6667 128L48.6667 172.807M135.333 128L176.413 103.3M135.333 128V172.807M92 54.3333L50.92 29.6333M92 54.3333L133.08 29.6333" stroke="black" stroke-width="10" stroke-linecap="round" stroke-linejoin="round"/>
</svg>
